<svg xmlns="http://www.w3.org/2000/svg" viewBox="0 0 9.68 12.94"><defs><style>.cls-1{fill:#f2f2f2;}.cls-2{fill:#e6e6e6;}</style></defs><title>marker</title><g id="Camada_2" data-name="Camada 2"><g id="Camada_1-2" data-name="Camada 1"><path class="cls-1" d="M4.8,12.94c-.67-.79-1.35-1.54-2-2.33A16,16,0,0,1,.31,6.46,4.79,4.79,0,0,1,3.53.18,4.86,4.86,0,0,1,9.62,4a5.45,5.45,0,0,1-.71,3.44,23.17,23.17,0,0,1-3.75,5.09ZM1.59,4.83A3.25,3.25,0,1,0,4.84,1.58,3.25,3.25,0,0,0,1.59,4.83Z"/><path class="cls-2" d="M1.59,4.83A3.25,3.25,0,1,1,4.84,8.1,3.27,3.27,0,0,1,1.59,4.83Z"/></g></g></svg>